<svg width="178" height="50" viewBox="0 0 178 50" fill="none" xmlns="http://www.w3.org/2000/svg">
  <path
    d="M171.358 14.135V0H178V14.135H171.358ZM159.669 14.135V0H166.31V14.135H159.669ZM126.26 49.2968H134.563V31.5049C134.563 23.91 138.548 20.4641 142.134 20.4641C145.721 20.4641 148.046 22.8551 148.046 28.6217V49.2968H156.348V26.8636C156.348 18.6357 152.097 13.4318 145.19 13.4318C140.341 13.4318 136.622 16.1041 134.563 21.9409V0H126.26V49.2968ZM0 49.2968H31.5485V42.2644H19.9254V0H13.0179C12.7522 5.90717 11.1582 7.38397 3.52015 7.38397H0V14.135H11.6231V42.2644H0V49.2968ZM105.14 20.4641C109.257 20.4641 112.512 23.91 112.91 28.8326H121.478C120.283 19.4796 113.774 13.4318 105.14 13.4318C95.7746 13.4318 88.3358 21.097 88.3358 31.7159C88.3358 42.3347 95.7746 50 105.14 50C113.774 50 120.283 44.0225 121.478 34.6695H112.91C112.512 39.5921 109.257 42.9677 105.14 42.9677C101.022 42.9677 96.8373 39.0999 96.8373 31.7159C96.8373 24.3319 100.889 20.4641 105.14 20.4641ZM53.1343 49.2968H61.4366V31.5049C61.4366 23.91 65.4216 20.4641 69.0082 20.4641C72.5948 20.4641 74.9194 22.8551 74.9194 28.6217V49.2968H83.2216V26.8636C83.2216 18.6357 78.9709 13.4318 72.0634 13.4318C67.2149 13.4318 63.4955 16.1041 61.4366 21.9409V14.135H53.1343V49.2968ZM36.5299 0V8.79044H44.8321V0H36.5299ZM36.5299 14.135V49.2968H44.8321V14.135H36.5299Z"
    fill="currentColor"
  />
</svg>
