<?xml version="1.0" encoding="UTF-8"?> <svg xmlns="http://www.w3.org/2000/svg" width="125" height="65" viewBox="0 0 125 65" fill="none"><path fill-rule="evenodd" clip-rule="evenodd" d="M125 63.7902V25.4185C125 11.7127 121.103 8.5758 113.906 10.1042C109.51 11.0452 106.916 14.4086 106.44 23.0198C106.433 23.1519 106.409 23.4915 106.276 23.4915C106.143 23.4915 106.143 23.1919 106.143 23.0316V0L93.1418 2.75955V63.7902H106.143V32.3361L106.149 32.1271C106.26 28.2222 106.334 25.6302 108.253 25.1968C110.466 24.6991 110.962 25.5765 110.962 31.3172V63.7902H125ZM80.4364 30.3196C89.9735 32.0321 91.4702 34.9472 91.4702 44.4098V49.7402C91.4702 60.4057 88.226 64.2338 76.3587 64.2338C65.074 64.2338 61.2471 60.6298 61.2471 48.9901V44.6858H73.9477V48.4596C73.9477 52.29 74.4648 53.5848 76.6486 53.5848C78.3962 53.5848 78.7698 52.6815 78.7698 49.3793V46.6623C78.7698 43.9594 78.6888 43.6646 72.1349 42.4546C62.2345 40.4286 61.2471 37.7304 61.2471 28.4941V26.2937C61.2471 15.93 64.6039 11.6138 76.3587 9.18207C88.1764 6.7315 91.4702 10.977 91.4702 22.534V28.6145H78.7698V24.704C78.7698 20.5905 78.2891 19.5881 76.2855 20.0598C74.3525 20.5104 73.9477 22.6354 73.9477 25.9209V26.454C73.9477 29.0767 74.1671 29.5155 80.4364 30.3196ZM44.9009 15.8238C33.7311 18.206 29.6771 22.6354 29.6771 32.9541V33.8835H42.5239V29.4895C42.5239 27.4305 43.1038 25.9327 44.6449 25.6119C46.1861 25.2912 46.8287 26.9398 46.8287 29.7866V34.8033C45.4428 35.2133 43.8284 35.4482 42.1463 35.693C35.9527 36.5941 28.8412 37.6288 28.8412 48.0326V52.5965C28.8412 60.9953 31.4115 64.2361 37.9629 64.2361C43.0463 64.2361 45.7003 62.6228 46.5362 57.5236C46.5362 57.5236 46.625 56.9928 46.7163 56.9928C46.8079 56.9928 46.8287 57.3867 46.8287 57.5236V63.7997H59.6781V27.7535C59.6781 16.6422 55.5534 13.5478 44.9009 15.8238ZM46.8287 51.3441C46.8287 54.849 45.9015 55.6438 43.9763 55.6438C42.1763 55.6438 40.6483 54.7829 40.6483 51.3441V47.3698C40.6483 44.2187 44.0023 43.0064 46.8287 42.0795V51.3441ZM27.2739 33.7137V63.7997H16.2557V37.9709C16.2557 34.3364 15.5948 32.1146 13.8473 32.5651C12.3034 32.9661 11.4362 34.7398 11.4362 39.0182V63.8068H0V25.8336L11.4362 23.4067V32.0226C11.4362 32.3386 11.6635 32.2774 11.6974 32.0226C12.4915 25.112 15.0463 22.2393 19.7743 21.2132C25.8635 19.8925 27.2739 25.2676 27.2739 33.7137Z" fill="#001E2B"></path></svg> 